<svg xmlns="http://www.w3.org/2000/svg"
     width="10.1889in" height="1.21111in"
     viewBox="0 0 917 109">
  <path id="Selection"
        fill="none" stroke="black" stroke-width="1"
        d="M 151.91,13.01
           C 159.66,21.24 162.61,31.11 164.13,42.00
             167.14,63.61 163.79,89.89 144.00,102.89
             134.75,108.97 125.55,109.12 115.00,109.00
             87.71,108.68 73.12,83.88 73.00,59.00
             72.90,38.05 75.71,16.53 96.00,5.04
             100.22,2.65 104.31,1.50 109.00,0.46
             124.93,-1.74 140.47,0.88 151.91,13.01 Z
           M 318.00,26.00
           C 318.06,21.34 318.53,18.24 320.66,14.00
             327.04,1.24 337.27,-0.15 350.00,0.00
             367.13,0.21 378.88,15.51 373.96,32.00
             372.66,36.34 370.72,39.58 367.70,42.96
             363.91,47.21 359.08,50.51 354.00,53.00
             354.00,53.00 372.00,73.00 372.00,73.00
             372.00,73.00 376.00,55.00 376.00,55.00
             376.00,55.00 395.00,55.00 395.00,55.00
             393.96,67.81 392.71,79.21 385.00,90.00
             390.49,94.02 397.17,102.28 401.00,108.00
             401.00,108.00 381.00,108.00 381.00,108.00
             371.96,107.83 373.74,103.83 368.96,104.27
             368.96,104.27 356.00,108.33 356.00,108.33
             347.22,110.20 333.13,109.49 325.00,105.68
             312.39,99.77 308.85,91.19 309.00,78.00
             309.05,74.01 309.23,71.72 310.90,68.00
             314.10,60.89 320.22,55.58 327.00,52.00
             320.87,41.04 317.85,39.18 318.00,26.00 Z
           M 523.91,13.01
           C 531.66,21.24 534.61,31.11 536.13,42.00
             539.14,63.61 535.79,89.89 516.00,102.89
             506.75,108.97 497.55,109.12 487.00,109.00
             459.71,108.68 445.12,83.88 445.00,59.00
             444.90,38.05 447.71,16.53 468.00,5.04
             472.22,2.65 476.31,1.50 481.00,0.46
             496.93,-1.74 512.47,0.88 523.91,13.01 Z
           M 23.00,1.00
           C 23.00,1.00 23.00,90.00 23.00,90.00
             23.00,90.00 70.00,90.00 70.00,90.00
             70.00,90.00 70.00,108.00 70.00,108.00
             70.00,108.00 0.00,108.00 0.00,108.00
             0.00,108.00 0.00,1.00 0.00,1.00
             0.00,1.00 23.00,1.00 23.00,1.00 Z
           M 195.00,1.00
           C 195.00,1.00 206.58,41.00 206.58,41.00
             206.58,41.00 218.00,78.00 218.00,78.00
             218.00,78.00 231.02,35.00 231.02,35.00
             231.02,35.00 241.00,1.00 241.00,1.00
             241.00,1.00 267.00,1.00 267.00,1.00
             267.00,1.00 253.69,40.00 253.69,40.00
             253.69,40.00 238.58,84.00 238.58,84.00
             238.58,84.00 233.00,100.00 233.00,100.00
             233.00,100.00 229.49,106.98 229.49,106.98
             229.49,106.98 224.00,108.00 224.00,108.00
             224.00,108.00 214.00,108.00 214.00,108.00
             214.00,108.00 206.51,106.98 206.51,106.98
             206.51,106.98 203.00,100.00 203.00,100.00
             203.00,100.00 197.33,84.00 197.33,84.00
             197.33,84.00 177.00,25.00 177.00,25.00
             177.00,25.00 169.00,1.00 169.00,1.00
             169.00,1.00 195.00,1.00 195.00,1.00 Z
           M 588.00,1.00
           C 599.35,1.00 608.86,0.34 619.00,6.81
             638.69,19.37 636.21,54.50 614.00,63.00
             614.00,63.00 629.25,93.00 629.25,93.00
             629.25,93.00 636.00,108.00 636.00,108.00
             636.00,108.00 619.00,108.00 619.00,108.00
             610.30,107.98 611.37,108.16 605.75,97.00
             605.75,97.00 596.75,80.00 596.75,80.00
             595.62,77.74 593.06,72.09 591.37,70.60
             588.58,68.14 578.87,69.00 575.00,69.00
             575.00,69.00 575.00,108.00 575.00,108.00
             575.00,108.00 552.00,108.00 552.00,108.00
             552.00,108.00 552.00,1.00 552.00,1.00
             552.00,1.00 588.00,1.00 588.00,1.00 Z
           M 686.00,1.00
           C 694.47,1.10 702.97,3.86 710.00,8.60
             725.30,18.89 729.92,35.57 730.91,53.00
             731.12,56.83 730.52,58.47 730.17,62.00
             728.55,78.14 723.71,92.14 709.00,101.07
             704.28,103.94 697.44,106.56 692.00,107.77
             692.00,107.77 648.00,107.77 648.00,107.77
             648.00,107.77 648.00,1.00 648.00,1.00
             648.00,1.00 686.00,1.00 686.00,1.00 Z
           M 817.00,1.00
           C 817.00,1.00 817.00,19.00 817.00,19.00
             817.00,19.00 768.00,19.00 768.00,19.00
             768.00,19.00 768.00,44.00 768.00,44.00
             768.00,44.00 810.00,44.00 810.00,44.00
             810.00,44.00 810.00,62.00 810.00,62.00
             810.00,62.00 768.00,62.00 768.00,62.00
             768.00,62.00 768.00,90.00 768.00,90.00
             768.00,90.00 817.00,90.00 817.00,90.00
             817.00,90.00 817.00,108.00 817.00,108.00
             817.00,108.00 745.00,108.00 745.00,108.00
             745.00,108.00 745.00,1.00 745.00,1.00
             745.00,1.00 817.00,1.00 817.00,1.00 Z
           M 845.00,1.00
           C 845.00,1.00 851.62,1.57 851.62,1.57
             851.62,1.57 862.95,18.00 862.95,18.00
             862.95,18.00 894.00,69.00 894.00,69.00
             894.00,69.00 894.00,1.00 894.00,1.00
             894.00,1.00 917.00,1.00 917.00,1.00
             917.00,1.00 917.00,108.00 917.00,108.00
             917.00,108.00 901.00,108.00 901.00,108.00
             899.19,108.00 895.93,108.14 894.33,107.43
             891.11,106.00 885.11,94.50 883.00,91.00
             883.00,91.00 852.00,40.00 852.00,40.00
             852.00,40.00 852.00,108.00 852.00,108.00
             852.00,108.00 829.00,108.00 829.00,108.00
             829.00,108.00 829.00,1.00 829.00,1.00
             829.00,1.00 845.00,1.00 845.00,1.00 Z
           M 338.97,33.00
           C 340.07,36.04 342.16,39.96 346.01,39.00
             356.95,36.30 361.87,15.87 344.02,18.43
             337.67,21.07 336.75,26.91 338.97,33.00 Z
           M 98.67,74.00
           C 101.87,83.58 107.48,89.73 118.00,89.99
             137.81,90.47 141.62,72.19 141.99,56.00
             142.25,44.13 139.65,25.09 127.00,20.15
             123.09,18.61 118.11,18.87 114.00,19.33
             93.73,24.38 93.33,57.99 98.67,74.00 Z
           M 470.67,74.00
           C 473.87,83.58 479.48,89.73 490.00,89.99
             509.81,90.47 513.62,72.19 513.99,56.00
             514.25,44.13 511.65,25.09 499.00,20.15
             495.09,18.61 490.11,18.87 486.00,19.33
             465.73,24.38 465.33,57.99 470.67,74.00 Z
           M 601.99,48.15
           C 611.52,42.38 611.47,26.57 601.99,21.44
             595.63,18.00 582.46,19.00 575.00,19.00
             575.00,19.00 575.00,51.00 575.00,51.00
             581.69,51.00 596.48,51.49 601.99,48.15 Z
           M 696.00,85.58
           C 708.27,76.23 707.16,61.66 707.00,48.00
             706.89,39.16 703.97,29.64 696.83,23.94
             689.81,18.34 679.47,19.00 671.00,19.00
             671.00,19.00 671.00,90.00 671.00,90.00
             679.24,90.00 689.05,90.88 696.00,85.58 Z
           M 350.16,78.00
           C 347.96,75.53 341.01,66.20 337.93,66.20
             332.56,66.20 328.98,77.69 332.17,84.00
             337.04,93.60 349.97,92.09 358.00,88.00
             355.04,82.92 353.94,82.23 350.16,78.00 Z" />
</svg>
